<svg xmlns="http://www.w3.org/2000/svg" width="1400" height="400" viewBox="0 0 1400 400" role="img" aria-labelledby="title desc">
<title id="title">Geovanna Eduarda da Silva — Analista de Inteligência Artificial</title>
<desc id="desc">Analista de IA, pós-graduada em Inteligência Artificial e estudante de Engenharia de Software.</desc>
<defs>
  <linearGradient id="bg" x1="0" y1="0" x2="1" y2="1"><stop stop-color="#FFF8FC"/><stop offset=".55" stop-color="#F7F5FF"/><stop offset="1" stop-color="#F0F8FF"/></linearGradient>
  <linearGradient id="line" x1="0" y1="0" x2="1" y2="0"><stop stop-color="#EC4899"/><stop offset=".55" stop-color="#8B5CF6"/><stop offset="1" stop-color="#38BDF8"/></linearGradient>
</defs>
<rect width="1400" height="400" rx="32" fill="url(#bg)"/>
<circle cx="1260" cy="52" r="150" fill="#EC4899" opacity=".07"/><circle cx="90" cy="375" r="175" fill="#38BDF8" opacity=".07"/>
<g opacity=".20" fill="none" stroke-linecap="round">
  <path d="M1090 88c60 0 60 52 120 52s60-52 120-52" stroke="#8B5CF6" stroke-width="3"/>
  <path d="M1030 153c60 0 60 52 120 52s60-52 120-52" stroke="#EC4899" stroke-width="3"/>
  <path d="M1110 230c45 0 45 42 90 42s45-42 90-42" stroke="#38BDF8" stroke-width="3"/>
  <circle cx="1090" cy="88" r="7" fill="#8B5CF6"/><circle cx="1330" cy="88" r="7" fill="#8B5CF6"/>
  <circle cx="1030" cy="153" r="7" fill="#EC4899"/><circle cx="1270" cy="153" r="7" fill="#EC4899"/>
</g>
<rect x="92" y="75" width="132" height="7" rx="4" fill="url(#line)"/>
<text x="92" y="156" fill="#111827" font-size="56" font-weight="800" font-family="Inter, Segoe UI, Arial, sans-serif">Geovanna Eduarda da Silva</text>
<text x="92" y="224" fill="#7C3AED" font-size="34" font-weight="750" font-family="Inter, Segoe UI, Arial, sans-serif">Analista de Inteligência Artificial</text>
<text x="92" y="282" fill="#4B5563" font-size="24" font-weight="600" font-family="Inter, Segoe UI, Arial, sans-serif">Pós-graduada em IA · Engenharia de Software · Produtos Digitais</text>
<text x="92" y="337" fill="#6B7280" font-size="20" font-family="Inter, Segoe UI, Arial, sans-serif">Transformo tecnologia em soluções que as pessoas conseguem usar.</text>
</svg>