<svg xmlns="http://www.w3.org/2000/svg" width="1400" height="400" viewBox="0 0 1400 400" role="img" aria-labelledby="title desc">
<title id="title">Geovanna Eduarda da Silva</title>
<desc id="desc">Tecnologia, criatividade e projetos que resolvem problemas reais.</desc>
<defs>
  <linearGradient id="bg" x1="0" y1="0" x2="1" y2="1">
    <stop stop-color="#FFF8FC"/><stop offset=".55" stop-color="#F7F5FF"/><stop offset="1" stop-color="#F0F8FF"/>
  </linearGradient>
  <linearGradient id="line" x1="0" y1="0" x2="1" y2="0">
    <stop stop-color="#EC4899"/><stop offset=".55" stop-color="#8B5CF6"/><stop offset="1" stop-color="#38BDF8"/>
  </linearGradient>
</defs>
<rect width="1400" height="400" rx="32" fill="url(#bg)"/>
<circle cx="1260" cy="52" r="150" fill="#EC4899" opacity=".07"/>
<circle cx="90" cy="375" r="175" fill="#38BDF8" opacity=".07"/>
<path d="M1030 115c55-50 125-53 177-8s74 108 128 76" fill="none" stroke="#8B5CF6" stroke-width="3" stroke-linecap="round" opacity=".28"/>
<path d="M1075 146c42-28 91-21 128 13s71 54 111 33" fill="none" stroke="#EC4899" stroke-width="3" stroke-linecap="round" opacity=".24"/>
<rect x="92" y="82" width="132" height="7" rx="4" fill="url(#line)"/>
<text x="92" y="169" fill="#111827" font-size="58" font-weight="800" font-family="Inter, Segoe UI, Arial, sans-serif">Geovanna Eduarda da Silva</text>
<text x="92" y="232" fill="#4B5563" font-size="28" font-weight="600" font-family="Inter, Segoe UI, Arial, sans-serif">Tecnologia, criatividade e projetos que resolvem problemas reais.</text>
<text x="92" y="300" fill="#6B7280" font-size="21" font-family="Inter, Segoe UI, Arial, sans-serif">Gestão de TI · Engenharia de Software · Inteligência Artificial</text>
<g transform="translate(92 337)">
  <circle cx="7" cy="7" r="7" fill="#EC4899"/><circle cx="31" cy="7" r="7" fill="#8B5CF6"/><circle cx="55" cy="7" r="7" fill="#38BDF8"/>
</g>
</svg>